# xmcd
#
# Track frame offsets:
#	150
#	6441
#	27452
#	46013
#	63794
#	83576
#	102415
#	120297
#	138771
#	156139
#	175517
#	196104
#	215255
#	231640
#	251596
#	270899
#	291333
#	312227
#	329158
#
# Disc length: 4403 seconds
#
# Revision: 0
# Processed by: cddbd v1.5.1PL2 Copyright (c) Steve Scherf et al.
# Submitted via: audiograbber 1.83.01
#
DISCID=fe113113
DTITLE=SMG (Sex,Money and Gunz) - Repossession
DYEAR=2004
DGENRE=Rap
TTITLE0=Intro
TTITLE1=Repossession
TTITLE2=Radio Play
TTITLE3=Bang Bang
TTITLE4=Get It Going
TTITLE5=Did That
TTITLE6=Compton Brooklyn
TTITLE7=My Gun
TTITLE8=Mama Say A Prayer
TTITLE9=Hustler/Player/Gambler
TTITLE10=Please Believe Me
TTITLE11=Swazy
TTITLE12=Hangout Hustle
TTITLE13=Stop The Talk
TTITLE14=Rush The Coatroom
TTITLE15=The Game´s Real
TTITLE16=Ya Got Me Open
TTITLE17=Would You Love Me 
TTITLE18=Outtro
EXTD=
EXTT0=
EXTT1=
EXTT2=
EXTT3=
EXTT4=
EXTT5=
EXTT6=
EXTT7=
EXTT8=
EXTT9=
EXTT10=
EXTT11=
EXTT12=
EXTT13=
EXTT14=
EXTT15=
EXTT16=
EXTT17=
EXTT18=
PLAYORDER=
